<svg   
    xmlns="http://www.w3.org/2000/svg"   
    width="1252.000000pt" height="422.000000pt" viewBox="0 0 1252.000000 422.000000" preserveAspectRatio="xMidYMid meet">  
    <defs>  
        <linearGradient id="grad1" x1="0%" y1="0%" x2="100%" y2="100%">  
            <stop offset="0%" style="stop-color:#FF6B6B; stop-opacity:1" />  
            <stop offset="100%" style="stop-color:#FF4D4D; stop-opacity:1" />  
        </linearGradient>  
        <filter id="shadow">  
            <feDropShadow dx="2" dy="2" stdDeviation="4" flood-color="rgba(0,0,0,0.3)" />  
        </filter>  
    </defs>  

    <g transform="translate(0, 422) scale(0.050000,-0.050000)" fill="#f46767" stroke="none">   
        <!-- "b" -->  
        <path d="M2880 6980 l0 -1100 160 0 160 0 -12 80 c-16 96 -4 98 84 21 279 -245 799 -99 983 277 307 625 -445 1323 -984 912 l-83 -63 9 486 8 487 -163 0 -162 0 0 -1100z m211 12 c-2 -12 -1 -15 4 -7 11 20 65 19 65 -1 0 -25 -45 -64 -74 -64 -17 0 -26 27 -26 75 1 52 6 66 18 47 10 -16 16 -38 13 -50z m716 -57 c199 -110 271 -394 147 -577 -288 -423 -927 -105 -745 371 38 101 163 224 245 242 31 7 65 16 76 20 45 18 201 -14 277 -56z m-666 -736 c16 -30 15 -38 -5 -34 -15 3 -24 -10 -21 -28 6 -31 -3 -33 -72 -19 -5 1 2 14 14 29 13 15 17 32 10 39 -19 19 10 78 33 64 11 -7 29 -30 41 -51z"/>   

        <!-- Left Bracket (Thinner and Matte Grey) -->  
        <text x="2250" y="7800" font-family="Georgia, serif" font-size="1600" fill="#8A8A8A">[</text>  

        <!-- Second path for "d" (shifted over) -->  
        <path d="M7480 7589 l7 -492 -89 68 c-545 416 -1303 -285 -986 -911 194 -384  
            730 -521 1005 -256 61 58 70 53 63 -33 l-7 -75 155 -6 155 -6 0 1101 0 1101  
            -155 0 -155 0 7 -491z m120 -614 l5 -77 -52 34 c-31 20 -48 46 -41 63 6  
            15 11 36 11 45 0 65 73 3 77 -65z m-411 4 c236 -66 363 -357 256 -589 -154  
            -334 -657 -298 -774 55 -105 318 192 624 518 534z m414 -788 c0 -39 -39 -60  
            -64 -35 -11 11 -14 30 -7 42 20 32 71 27 71 -7z"/>  

        <!-- Right Bracket (Thinner and Matte Grey) -->  
        <text x="8750" y="7600" font-family="Georgia, serif" font-size="1600" fill="#8A8A8A">]</text>  

        <!-- Title of i -->  
        <path d="M8238 7822 c-152 -153 15 -388 213 -298 135 61 139 259 6 327 -86 45 -154 36 -219 -29z"/>   
        
        <!-- m -->  
        <g transform="translate(-200.00000,0.000000)">  
            <path d="M1110 7285 c-106 -18 -134 -30 -200 -87 l-70 -62 0 62 0 62 -160 0 -160 0 0 -690 0 -690 160 0 160 0 0 467 c0 453 1 469 46 535 95 142 300 148 402 12 40 -54 42 -85 48 -536 l6 -480 150 6 150 6 4 460 c5 518 14 557 144 619 105 49 212 27 289 -61 l61 -69 0 -480 0 -479 161 0 162 0 -7 515 -6 515 -59 107 c-166 299 -596 363 -801 120 l-45 -55 -47 50 c-97 104 -272 172 -388 153z"/>   
        </g>  
        
        <!-- o -->  
        <path d="M5045 7238 c-298 -115 -496 -456 -445 -769 113 -696 1070 -831 1383 -195 282 572 -327 1198 -938 964z m407 -267 c243 -73 353 -341 239 -585 -141 -303 -601 -303 -742 0 -163 349 134 694 503 585z"/>  
        
        <!-- Stem of i -->  
        <path d="M8214 6575 l4 -685 151 -6 151 -6 0 691 0 691 -155 0 -155 0 4 -685z"/>   
    </g>   
</svg>